<?xml version="1.0" encoding="utf-8"?>
<!-- Generator: Adobe Illustrator 19.0.0, SVG Export Plug-In . SVG Version: 6.00 Build 0)  -->
<svg version="1.1" id="Layer_1" xmlns="http://www.w3.org/2000/svg" xmlns:xlink="http://www.w3.org/1999/xlink" x="0px" y="0px"
	 viewBox="192 -144 715.8 1080" style="enable-background:new 192 -144 715.8 1080;" xml:space="preserve">
<style type="text/css">
	.st0{display:none;}
	.st1{display:inline;fill:#D1D3D4;}
	.st2{display:inline;fill:#414042;}
	.st3{display:inline;fill:#504C3C;}
	.st4{opacity:0.4;fill:#D1D3D4;enable-background:new    ;}
	.st5{fill:#414042;}
	.st6{opacity:0.4;enable-background:new    ;}
</style>
<g id="Layer_1_1_" class="st0">
	<path id="XMLID_918_" class="st1" d="M1886.3,544.6c0,0-43.6,5-52.7,1.7c0,0,10.7,58.9,82.4,71.2c0,0,35.8,8.5,46.9-22.1
		c0,0-21.5,10.4-28.6-22.8c0,0-10.4,22.8-27.3,21.5c0,0-7.8-2.6-6.5-8.5c0,0-7.1-27.3-37.1-20.8
		C1863.2,564.9,1874.6,549.2,1886.3,544.6z"/>
	<path id="XMLID_917_" class="st1" d="M2117.5,352.6l37.1-49.1v-29.2l18.8-29.4l-14-14.1c0,0,26.8-10.2,29.3-14l-3.8-5.1l7.7-17.9
		l-7.7-8.9l38.3-20.4v-29.4l-7.6-2.6l-3.8-17.8l-28.1-11.5l15.3-12.8l-12.8-6.4l24.2-10.2l5.1-21.7l-7.7-15.3l-21.7,3.8l-10.2-24.2
		l7.6-6.4l1.3-20.5l2.6-14l-10.2-6.4L2167-22l-6.3-16.6l11.5-5.1v-23l5.1-5.1l-17.9-17.9l-5.1,6.4l-20.4-12.8l-16.6,10.2l11.5-34.4
		l-17.8-29.4l-27-2.3l-16.5-28.1l-25.6-3.8l-1.3-10.2l-12.7-35.7l-3.8,28.1l-53.6-20.4l-14,2.5v-21.7l-31.9,12.8l-39.5-3.8l-6.4,7.7
		l-21.7,1.3l23-23l-8.9-16.6l-15.3,6.4l-2.5,5.1l-33.1-3.8l-25.5,16.6l-21.7-15.3l-29.4,1.3l-26.7,42.1l-48.9-5.3l-54.9,40.9
		l-12.7,2.5l-19.1,11.5l-42.1,5.1l-21.7,25.5l-7.6,48.5l-16.6,5.1l15.3,10.2l-29.4,29.4l-6.4,10.2l19.1,7.7l-24.2-1.3l11.5,19.1
		L1455,6.3l1.3,20.4l-44.7,31.9l34.5-7.6l-8.9,15.3l6.4,16.6l-21.7,21.7v26.8l-7.7,11.5l10.2,26.8l-8.9,16.6l14.1,20.4l-20.6,25.4
		h37l-10.2,17.9l6.4,10.2l-2.5,34.5l33.2-16.6l-15.3,42.1L1469,338l5.1,28.1l14.1,19.2l-2.6,30.6l42.1-5.1l2.5,38.2l19.2-2.5
		l11.4,15.3l11.5,2.5l3.8,24.3l23-7.7c0,0,54.2,12.2,47.8,32.7l16.6,58.9l-7-13.8l-4-45.2l-34-56.7l-43.7-23.2l-46-40.8
		c0,0-61.2-139.1-57.4-187.6c3.8-48.5,82.9-407.1,242.5-380.2c159.5,26.8,356-26.9,389.2,127.6c33.2,154.4,47.3,78.8,43.4,179.6
		C2146.6,132.3,2124.3,317.4,2117.5,352.6z"/>
	<path id="XMLID_916_" class="st2" d="M1498.5,703.5c0,0,68.8-50.1,93.9-50.1c0,0,52.6-71.3,57.6-126.5l-38.8-61.4l-21.3-6.2
		l-5-17.5l-5-7.5l-35.1-3.7l-10-33.8l-35.1-2.5l5-23.8l-20-46.3l-8.8-43.8l-12.5,7.5l-2.5-31.3l-12.6-36.3l-15,10l8.7-26.3
		l-6.2-47.6l-10-23.8l30-45l-5-28.8l-20-3.8l32.6-15l16.3-52.6l1.2-12.5l36.3-25.1l-15-8.7l25.1-21.3L1521-114l31.3-25.1l46.3-11.2
		l67.6-48.8h43.9c0,0,33.8-33.8,43.8-35.1l47.6,6.3l15-6.3l56.3-5l2.5,22.5l40.1,3.8l25-15l5,25.1l18.8-3.7l41.3,16.3
		c0,0,3.7-25.1,8.8-26.3l12.5,38.8l41.3,32.5l28.8,7.5l17.5,47.6l32.6,6.3l2.5,47.6l15,20l1.3,46.3l18.8,7.5l5,27.5l-11.3,32.5
		l27.5,60.1l-41.3,11.3l3.8,10l-6.2,33.8l-11.3,16.3l8.8,8.8l-17.6,18.8l3.8,7.5c0,0-17.9,38.5-17.9,46c0,0-30,204.5-81,259.5
		c0,0,57.6-121.5,65.4-264.7c0,0,54.7-212.3-76.6-308.8c0,0-40.1-30-90.1-16.3L1923-33.9l-6.2,12.5l-20-5l8.8,15
		c0,0-45.1-38.8-68.9-2.5c0,0-125.2-1.2-125.2,151.5c0,0-75.1,150.3-75.1,157.8c0,0-53.9-55.1-78.9-46.3c0,0-47.6,43.8-15,95.1
		c0,0,66.4,129,117.7,95.2c0,0,15.9,85.5,46,116.9c0,0,92.4,120.7,144.6,126.3c0,0-93.8-18.3-165.4-110.7c0,0-52.7,56.6,1.1,181.8
		c0,0-30-32.5-62.6-7.5C1623.7,746,1608.7,655.9,1498.5,703.5z"/>
	<path id="XMLID_915_" class="st2" d="M1700.9,242.2c0,0,71.6-50.2,109.9-39.4c0,0,35.9,9.4,44.2,18.6c0,0,36.7,18.2,54.8,7.9
		c0,0-56.9-64.4-122.8-49.1C1786.9,180.2,1746.5,184.4,1700.9,242.2z"/>
	<path id="XMLID_914_" class="st2" d="M2020.6,235.2l1.3,20l23.8-13.8c0,0,20,0,40.1-8.8c0,0,28.8-6.3,45.1,8.8
		c0,0-28.8-32.5-60.1-31.3L2020.6,235.2z"/>
	<path id="XMLID_913_" class="st2" d="M1990.5,446.8c0,0,4.6,23.4-27.3,24.7c0,0,20.8,8.5,44.9-13l9.8-1.3
		C2017.9,457.1,2023.7,451.9,1990.5,446.8z"/>
	<path id="XMLID_912_" class="st2" d="M1879.2,453.9c0,0,35.8-21.5,41,9.2l-12.4-2c0,0-10.4-13.7-24.1-4.6L1879.2,453.9z"/>
	<path id="XMLID_911_" class="st2" d="M1833.6,546.4c0,0,46.2-19.5,52.7-29.9c0,0,27.3-32.5,59.9,2c0,0,23.4-18.3,41.7,3.2
		c0,0,14.3,19.5-1.3,26c0,0-29.9,34.6-78.8,5.3c0,0,33.2,3.2,36.5-2.6c0,0-5.9-0.7-23.5-9.8C1920.8,540.5,1844.7,550.9,1833.6,546.4
		z"/>
	<path id="XMLID_27_" class="st2" d="M1586.2,292.1c-60.2,68.6,13,80.4,13,80.4c-20.2-10.5-23.2-21.2-23.2-21.2
		c-13.8-26.3,20.3-52.1,20.3-52.1c5.9-2.6,19.1,12.1,19.1,12.1c-21,46.7,19.6,56,19.6,56c8.9,6.4,5.9,46.9,5.9,46.9
		c10.5-21.2,1.3-51.4,1.3-51.4c-36.5-9.1-15-51.5-15-51.5c-32.5-44.3-69-31.9-69-31.9s24.8,1.1,29.8,10.9l0,0L1586.2,292.1z"/>
	<path id="XMLID_904_" class="st2" d="M1726.1,266.4c0,0,41.1-17.6,43-17.6c0,0,72.2-9.1,99.6,42.3c0,0-8.4,3.3-22.8,1.3
		c0,0,19.5-15-25.4-29.3c0,0,1.3,8.5-1.9,9.1c0,0-1.5-6.7-10.2-6.1c0,0-10.3,2.8-6.4,13.5c0,0,4.7,8.1,12.9,3.5l-3.5,5.4
		c0,0-21.5,7.8-33.9-7.2c0,0-9.1-9.8,2.6-18.9c0,0-21.5,4.6-26,15C1754.2,277.4,1727.4,269.6,1726.1,266.4z"/>
	<path id="XMLID_903_" class="st2" d="M2058.9,302.1c0,0-3.3,3.4-4.6,4l-29.9-0.6c0,0-3.3-7.2,0-7.8c0,0-13,5.2-15,7.8
		c0,0,38.4-53.4,85.3-28.7c0,0,7.8,0,13.1-4.6c0,0-5.9,7.2-9.8,7.8c0,0,10.5,2.6,18.9-3.2c0,0-9.1,9.8-15.7,9.1c0,0,3.9,6.5,2,11.7
		c0,0-9.1-19.5-37.8-19.5c0,0,1.2,6.4-1.7,11.6c0,0-5.2-9.2-14-3.2c-8.3,5.7,0,0,0,0s-7.2,5.6-0.8,13.6c6.4,8,0,0,0,0
		s3.3,3.4,8.3,2.5"/>
	<path id="XMLID_902_" class="st3" d="M1647.1,533.6"/>
</g>
<g id="Layer_2">
	<path id="XMLID_11_" class="st4" d="M767.2,514.9l28.1-37.3v-22.2l14.3-22.4L799,422.4c0,0,20.4-7.7,22.3-10.6l-2.9-3.9l5.8-13.6
		l-5.8-6.8l29.1-15.6v-22.3l-5.8-2l-2.9-13.6l-21.3-8.8l11.6-9.7l-9.7-4.8l18.5-7.7l3.9-16.5l-5.8-11.6l-16.5,2.9l-7.7-18.5l5.8-4.8
		l0.9-15.6l2-10.7l-7.7-4.8l-7.7,6.8l-4.8-12.6l8.8-3.9v-17.4l3.9-3.9l-13.6-13.6l-3.9,4.8l-15.6-9.7l-12.6,7.7l8.8-26.2l-13.6-22.3
		l-20.4-2l-12.6-21.3l-19.4-2.9l-0.9-7.7l-9.7-27.1l-2.9,21.3l-40.7-15.6l-10.7,2V63.4l-24.4,9.7l-30.1-2.9l-4.8,5.8l-16.5,0.9
		l17.4-17.4l-6.7-12.6l-11.6,4.8l-2,3.9l-25.3-2.9l-19.4,12.6l-16.5-11.6L483,54.6l-20.4,32l-36.9-3.9l-41.8,31l-9.7,2l-14.5,8.8
		l-32,3.9l-16.5,19.4l-5.8,36.9l-12.6,3.9l11.6,7.7l-22.3,22.3l-4.8,7.7l14.5,5.8l-18.5-0.9l8.8,14.5l-18.5,5.8l0.9,15.6l-33.9,24.2
		l26.2-5.8l-6.8,11.6l4.8,12.6l-16.6,16.5v20.4l-5.8,8.8l7.7,20.4l-6.8,12.6L244,404l-15.6,19.3h28.1l-7.7,13.6l4.8,7.7l-2,26.2
		l25.3-12.6l-11.6,32.1l8.8,13.6l3.9,21.3l10.6,14.5l-2,23.3l32-3.9l2,29.1l14.5-2l8.8,11.6l8.8,2l2.9,18.5l17.4-5.8
		c0,0,41.2,9.3,36.3,24.8l0.5,54.7l6.8-20.4l-3-34.4l-25.8-43.1l-33.2-17.7l-34.9-31c0,0-46.6-105.8-43.6-142.6
		c2.9-36.9,63.1-309.5,184.4-289.1c121.3,20.3,270.7-20.4,296,97c25.3,117.4,36,59.9,33,136.5C789.4,347.4,772.4,488.2,767.2,514.9z
		"/>
	<path id="XMLID_10_" class="st5" d="M296.5,781.8c0,0,52.4-38.1,71.4-38.1c0,0,40-54.3,43.8-96.2l-29.5-46.7L366,596l-3.8-13.3
		l-3.8-5.7l-26.6-2.8l-7.6-25.8l-26.6-1.9l3.8-18.1l-15.3-35.2l-6.7-33.4l-9.6,5.7l-1.9-23.8l-9.6-27.6l-11.4,7.7l6.7-20l-4.8-36.2
		l-7.6-18.1l22.9-34.3l-3.8-21.9l-15.3-2.8l24.7-11.4l12.4-40l0.9-9.6l27.6-19l-11.4-6.7l19-16.2l-4.8-25.7l23.8-19l35.2-8.5
		l51.4-37.1h33.4c0,0,25.7-25.7,33.4-26.6l36.2,4.8l11.4-4.8l42.8-3.8l1.9,17.1l30.5,2.8l19-11.4l3.8,19l14.3-2.8l31.4,12.4
		c0,0,2.8-19,6.7-20l9.6,29.5l31.4,24.7l21.9,5.7l13.3,36.2l24.7,4.8l1.9,36.2l11.4,15.3l0.9,35.2l14.3,5.7l3.8,20.9l-10.9,39.4
		l23.2,31l-31.4,8.5l2.8,7.6l-4.8,25.7l-8.5,12.4l6.7,6.7l-13.3,14.3l2.8,5.7c0,0-18.1,23.7-18.1,29.5c0,0,2.6,130.2-88.8,239.7
		c0,0,94-136.3,77.6-241.5c0,0,47.4-145.7-46.5-225c0,0-38.4-29.2-76.5-18.8L619,220.9l-4.8,9.6l-15.3-3.8l6.7,11.4
		c0,0-34.3-29.5-52.4-1.9c0,0-95.2-0.9-95.2,115.2c0,0-57.1,114.3-57.1,120c0,0-41-41.9-60-35.2c0,0-36.2,33.4-11.4,72.4
		c0,0,50.4,98,89.5,72.4c0,0,12.1,65.1,34.9,88.9c0,0,70.3,91.8,109.9,96c0,0-71.3-13.9-125.8-84.2c0,0-40.1,43.1,0.9,138.3
		c0,0-22.9-24.7-47.6-5.7C391.7,814.2,380.3,745.6,296.5,781.8z"/>
	<path id="XMLID_9_" class="st5" d="M450.4,431c0,0,54.4-38.1,83.6-30c0,0,27.3,7.2,33.6,14.2c0,0,27.9,13.8,41.6,6
		c0,0-43.2-49-93.4-37.3C515.8,383.9,485.2,387.1,450.4,431z"/>
	<path id="XMLID_8_" class="st5" d="M693.6,425.7l0.9,15.3l18.1-10.5c0,0,15.3,0,30.5-6.7c0,0,21.9-4.8,34.3,6.7
		c0,0-21.9-24.7-45.7-23.8L693.6,425.7z"/>
	<path id="XMLID_7_" class="st5" d="M685,479.1c0,0,29.2-40.6,64.8-21.8c0,0,5.9,0,9.9-3.5c0,0-4.5,5.4-7.5,5.9c0,0,7.9,2,14.3-2.5
		c0,0-6.9,7.5-11.9,6.9c0,0,3,4.9,1.5,8.9c0,0-6.9-14.8-28.7-14.8c0,0,1,8.9-3.5,12.9c0,0-3.5-5.4-7.5-4c0,0-4.8,1.4-4.9,6.9
		c0,0-0.1,5.3,7.5,5.4l-22.8-0.5c0,0-2.5-5.4,0-5.9C696.4,473.2,686.5,477.2,685,479.1z"/>
	<path id="XMLID_6_" class="st5" d="M469.6,449.4c0,0,31.2-13.4,32.7-13.4c0,0,54.9-6.9,75.8,32.2c0,0-6.4,2.5-17.3,1
		c0,0,14.8-11.4-19.3-22.3c0,0,1,6.4-1.5,6.9c0,0-0.6-5.3-5.9-4c0,0-8.2,0.6-5.9,9.4c0,0,3,6.4,8.4,4l-2,3c0,0-16.4,5.9-25.8-5.4
		c0,0-6.9-7.5,2-14.3c0,0-16.4,3.5-19.8,11.4C491,457.9,470.6,451.9,469.6,449.4z"/>
	<path id="XMLID_5_" class="st5" d="M670.6,586.6c0,0,3.5,17.8-20.8,18.8c0,0,15.8,6.4,34.2-9.9l7.5-1
		C691.5,594.5,695.9,590.5,670.6,586.6z"/>
	<path id="XMLID_4_" class="st5" d="M586,592c0,0,27.2-16.4,31.2,6.9l-9.4-1.5c0,0-7.9-10.4-18.3-3.5L586,592z"/>
	<path id="XMLID_3_" class="st5" d="M551.3,662.3c0,0,35.2-14.8,40.1-22.8c0,0,20.8-24.7,45.5,1.5c0,0,17.8-13.9,31.7,2.5
		c0,0,10.9,14.8-1,19.8c0,0-22.8,26.3-59.9,4c0,0,25.3,2.5,27.7-2c0,0-4.5-0.5-17.8-7.5C617.7,657.9,559.8,665.7,551.3,662.3z"/>
	<path id="XMLID_2_" class="st6" d="M585.5,661.8c0,0-27.2,3-34.2,0.5c0,0,5.9,43.1,60.4,52.5c0,0,27.2,6.4,35.7-16.9
		c0,0-16.4,7.9-21.8-17.3c0,0-7.9,17.3-20.8,16.4c0,0-5.9-2-4.9-6.4c0,0-5.4-20.8-28.2-15.8C571.6,674.7,576.6,665.3,585.5,661.8z"
		/>
	<path id="XMLID_12_" class="st5" d="M363,471c-43.6,49.6,9.4,58.2,9.4,58.2c-14.6-7.6-16.8-15.3-16.8-15.3
		c-10-19,14.7-37.7,14.7-37.7c4.3-1.9,13.8,8.8,13.8,8.8c-15.2,33.8,14.2,40.5,14.2,40.5c6.4,4.6,4.3,33.9,4.3,33.9
		c7.6-15.3,0.9-37.2,0.9-37.2c-26.4-6.6-10.9-37.3-10.9-37.3c-23.5-32.1-49.9-23.1-49.9-23.1s17.9,0.8,21.6,7.9l0,0L363,471z"/>
</g>
</svg>
